<svg width="200" height="200" viewBox="0 0 200 200" fill="none" xmlns="http://www.w3.org/2000/svg">
<circle cx="100" cy="100" r="100" fill="black"/>
<path d="M87.5329 23.1126C88.5145 23.1069 89.4962 23.1012 90.5077 23.0953C92.5829 23.0859 94.6581 23.0793 96.7333 23.0755C99.8692 23.0658 103.004 23.0348 106.14 23.0032C125.638 22.899 142.101 25.2755 156.795 39.4173C169.244 53.5857 170.851 69.1729 170.733 87.3606C170.716 90.3097 170.732 93.2573 170.752 96.2063C170.773 114.663 167.902 129.142 154.853 143.011C150.369 147.125 144.654 152.316 138.341 152.316C138.341 152.976 138.341 153.636 138.341 154.316C138.862 154.537 139.383 154.759 139.92 154.988C143.26 156.82 146.132 159.187 149.091 161.566C153.082 164.749 157.077 167.889 161.216 170.878C162.248 171.683 163.279 172.487 164.341 173.316C164.341 173.976 164.341 174.636 164.341 175.316C130.346 177.686 130.346 177.686 121.402 170.861C119.05 168.679 116.835 166.465 114.822 163.963C111.897 160.709 109.659 158.528 105.242 157.817C103.53 157.815 103.53 157.815 101.783 157.812C100.509 157.793 99.2344 157.774 97.9215 157.755C96.5823 157.753 95.2431 157.752 93.9039 157.753C75.1687 157.688 58.5911 155.208 44.5954 141.796C34.366 130.539 30.2086 117.507 30.1383 102.589C30.1326 101.646 30.1269 100.702 30.121 99.7302C30.1116 97.7348 30.1051 95.7393 30.1012 93.7439C30.0915 90.722 30.0605 87.7008 30.0289 84.679C29.924 65.8226 29.924 65.8226 33.3414 57.3157C33.9795 55.6586 33.9795 55.6586 34.6305 53.968C42.0686 38.8525 52.3256 30.7353 68.0094 25.2962C74.5503 23.3715 80.7666 23.1433 87.5329 23.1126ZM60.9664 57.6907C55.4675 64.6977 54.1924 72.1541 54.1383 80.8899C54.1326 81.6138 54.1269 82.3377 54.121 83.0835C54.1116 84.6123 54.1051 86.1411 54.1012 87.67C54.0915 89.9787 54.0605 92.2865 54.0289 94.595C53.9517 105.251 54.5138 114.889 61.4586 123.491C66.7507 128.619 73.4103 132.401 80.8378 132.493C81.7463 132.506 82.6547 132.518 83.5907 132.532C84.5719 132.539 85.5532 132.546 86.5641 132.554C87.5794 132.562 88.5946 132.57 89.6406 132.578C91.7934 132.592 93.9462 132.603 96.099 132.611C99.3671 132.628 102.634 132.672 105.902 132.716C107.998 132.726 110.093 132.735 112.189 132.741C113.64 132.768 113.64 132.768 115.12 132.795C124.039 132.766 132.163 130.328 138.806 124.156C144.871 116.888 146.488 108.956 146.545 99.7415C146.55 99.0176 146.556 98.2937 146.562 97.5479C146.571 96.0191 146.578 94.4903 146.582 92.9615C146.591 90.6527 146.622 88.3449 146.654 86.0364C146.74 74.2245 145.822 64.2126 137.341 55.3157C127.431 46.5437 115.207 47.129 102.67 47.1304C100.544 47.1282 98.4186 47.11 96.2926 47.0911C83.267 47.0359 70.3257 47.4576 60.9664 57.6907Z" fill="#E6E6F0"/>
</svg>
